<?xml version="1.0" encoding="UTF-8" standalone="no"?>
<!-- Created with Inkscape (http://www.inkscape.org/) -->

<svg
   inkscape:version="1.1.1 (1:1.1+202109281943+c3084ef5ed)"
   width="210mm"
   height="297mm"
   viewBox="0 0 210 297"
   version="1.1"
   id="svg5"
   sodipodi:docname="libSpookyAction.svg"
   xmlns:inkscape="http://www.inkscape.org/namespaces/inkscape"
   xmlns:sodipodi="http://sodipodi.sourceforge.net/DTD/sodipodi-0.dtd"
   xmlns="http://www.w3.org/2000/svg"
   xmlns:svg="http://www.w3.org/2000/svg">
  <sodipodi:namedview
     id="namedview7"
     pagecolor="#505050"
     bordercolor="#ffffff"
     borderopacity="1"
     inkscape:pageshadow="0"
     inkscape:pageopacity="0"
     inkscape:pagecheckerboard="1"
     inkscape:document-units="mm"
     showgrid="false"
     inkscape:zoom="0.62670176"
     inkscape:cx="532.94888"
     inkscape:cy="643.04909"
     inkscape:window-width="1920"
     inkscape:window-height="1055"
     inkscape:window-x="0"
     inkscape:window-y="0"
     inkscape:window-maximized="1"
     inkscape:current-layer="layer1"
     inkscape:snap-object-midpoints="true" />
  <defs
     id="defs2" />
  <g
     inkscape:label="Layer 1"
     inkscape:groupmode="layer"
     id="layer1">
    <path
       id="rect3036"
       style="opacity:1;fill:#aaaaaa;fill-opacity:1;stroke:none;stroke-width:2.31052;stroke-linecap:square;stroke-linejoin:miter;stroke-miterlimit:4;stroke-dasharray:none;stroke-dashoffset:0;stroke-opacity:1;paint-order:normal"
       d="m 150.97844,138.18442 -0.52802,1.02976 h -1.84616 c -0.28249,0 -0.59257,0.0587 -0.86459,0.16404 -0.27587,0.10715 -0.49271,0.25453 -0.6014,0.41116 -0.1109,0.15954 -0.10097,0.31565 0.0315,0.43259 0.13407,0.11854 0.38126,0.18574 0.68527,0.18574 h 1.98354 l -0.39837,0.77629 h -2.07236 c -0.31726,-2.7e-4 -0.67093,0.0738 -0.98653,0.2069 -0.32002,0.1352 -0.57823,0.322 -0.71672,0.52097 -0.14125,0.20346 -0.14567,0.40269 -0.008,0.55218 0.14014,0.15187 0.41326,0.23812 0.7581,0.23812 h 2.24672 l -0.51368,1.00251 h -2.36261 c -0.75314,-5.3e-4 -1.65249,0.4146 -2.02547,0.95091 -0.18649,0.26776 -0.21463,0.53075 -0.0739,0.72892 0.14345,0.20162 0.44912,0.31645 0.84638,0.31618 h 2.59212 l -0.68969,1.34435 h -2.74605 c -0.42099,-2.7e-4 -0.91149,0.12991 -1.36999,0.36565 -0.46734,0.24024 -0.87066,0.57415 -1.1184,0.93186 -0.25546,0.36777 -0.32553,0.73078 -0.18759,1.00489 0.14124,0.28019 0.48554,0.44 0.95452,0.43947 h 3.06166 l -1.75181,3.41656 h 30.80359 l -1.7518,-3.41656 h 3.0622 c 0.46899,5.3e-4 0.81328,-0.15928 0.95453,-0.43947 0.13794,-0.27411 0.0673,-0.63712 -0.1876,-1.00489 -0.24828,-0.35771 -0.65106,-0.69162 -1.11894,-0.93186 -0.45851,-0.23574 -0.94846,-0.36592 -1.36944,-0.36565 h -2.74661 l -0.68913,-1.34435 h 2.59211 c 0.39726,2.7e-4 0.70238,-0.11456 0.84639,-0.31618 0.14069,-0.19817 0.112,-0.46116 -0.0739,-0.72892 -0.37299,-0.53631 -1.27234,-0.95144 -2.02547,-0.95091 h -2.36259 l -0.51423,-1.00251 h 2.24727 c 0.34429,0 0.61796,-0.0862 0.7581,-0.23812 0.13739,-0.14949 0.13353,-0.34872 -0.008,-0.55218 -0.13849,-0.19897 -0.39671,-0.3855 -0.71727,-0.52097 -0.31505,-0.13308 -0.66872,-0.20717 -0.98598,-0.2069 h -2.07237 l -0.39836,-0.77629 h 1.98299 c 0.30456,0 0.55119,-0.0672 0.68582,-0.18574 0.13242,-0.11694 0.14235,-0.27305 0.0315,-0.43259 -0.10869,-0.15663 -0.32553,-0.30401 -0.6014,-0.4109 -0.27202,-0.10557 -0.5821,-0.1643 -0.8646,-0.1643 h -1.84615 l -0.52802,-1.02976 z m 7.69911,1.33085 c 2.35817,2.7e-4 4.77262,0.39423 7.06955,1.18163 0.61907,0.21246 0.94018,0.64585 0.69576,0.97419 -0.12028,0.16193 -0.3636,0.27411 -0.67589,0.30957 -0.31395,0.0357 -0.66596,-0.01 -0.97494,-0.12462 -1.96202,-0.73078 -4.05591,-1.09987 -6.11448,-1.10014 -2.05748,0.001 -4.15026,0.37042 -6.11118,1.1012 -0.64775,0.2413 -1.39813,0.15663 -1.65138,-0.18389 -0.24443,-0.32835 0.0767,-0.762 0.69575,-0.97419 2.29638,-0.7882 4.70918,-1.18295 7.06681,-1.18375 z m 0,2.38548 c 2.30796,2.7e-4 4.66834,0.44371 6.90513,1.32979 0.33712,0.13335 0.61079,0.33999 0.76086,0.57759 0.15339,0.24289 0.16443,0.499 0.0259,0.71014 -0.14124,0.21537 -0.42484,0.36433 -0.78734,0.41063 -0.3636,0.0466 -0.77024,-0.0153 -1.12502,-0.16986 -1.84394,-0.80407 -3.82693,-1.211 -5.77957,-1.211 -1.95208,0.001 -3.93121,0.40931 -5.7735,1.21391 -0.35532,0.15478 -0.76196,0.21643 -1.12612,0.16986 -0.3625,-0.0463 -0.64554,-0.19526 -0.78679,-0.41063 -0.28526,-0.43471 0.0784,-1.00674 0.78403,-1.2872 2.23569,-0.88688 4.59497,-1.33217 6.90238,-1.33323 z m 0,3.19881 c 2.24065,2.6e-4 4.52875,0.50958 6.68499,1.52214 0.39229,0.18389 0.7101,0.46858 0.88224,0.79587 0.17711,0.33655 0.18649,0.69188 0.0193,0.98531 -0.17104,0.30003 -0.50981,0.50694 -0.94128,0.56964 -0.43312,0.0632 -0.91425,-0.0259 -1.32916,-0.24474 -1.68284,-0.88555 -3.51023,-1.33614 -5.31666,-1.33614 -1.80532,0.002 -3.63051,0.45429 -5.31168,1.34038 -0.41547,0.21907 -0.8966,0.30797 -1.33027,0.24474 -0.43147,-0.0627 -0.77079,-0.26988 -0.94128,-0.57044 -0.34264,-0.60299 0.0778,-1.3933 0.89935,-1.77985 2.15568,-1.01389 4.44433,-1.52532 6.68444,-1.52691 z" />
    <path
       id="rect3036-3"
       style="fill:#aaaaaa;fill-opacity:1;stroke:none;stroke-width:1.6;stroke-linecap:square;stroke-linejoin:miter;stroke-miterlimit:4;stroke-dasharray:none;stroke-dashoffset:0;stroke-opacity:1;paint-order:normal"
       d="m 102.4989,133.60468 v 2.79621 h -2.44326 a 1.41111,1.41111 0 0 0 -1.412316,1.41026 1.41111,1.41111 0 0 0 1.412316,1.4118 h 2.44326 v 1.63504 h -2.44326 a 1.41111,1.41111 0 0 0 -1.412316,1.41025 1.41111,1.41111 0 0 0 1.412316,1.4118 h 2.44326 v 1.63504 h -2.44326 a 1.41111,1.41111 0 0 0 -1.412316,1.40974 1.41111,1.41111 0 0 0 1.412316,1.41231 h 2.44326 v 1.63453 h -2.44326 a 1.41111,1.41111 0 0 0 -1.412316,1.41231 1.41111,1.41111 0 0 0 1.412316,1.41025 h 2.44326 v 2.7957 h 21.78524 v -2.7957 h 2.44326 a 1.41111,1.41111 0 0 0 1.41232,-1.41025 1.41111,1.41111 0 0 0 -1.41232,-1.41231 h -2.44326 v -1.63453 h 2.44326 a 1.41111,1.41111 0 0 0 1.41232,-1.41231 1.41111,1.41111 0 0 0 -1.41232,-1.40974 h -2.44326 v -1.63504 h 2.44326 a 1.41111,1.41111 0 0 0 1.41232,-1.4118 1.41111,1.41111 0 0 0 -1.41232,-1.41025 h -2.44326 v -1.63504 h 2.44326 a 1.41111,1.41111 0 0 0 1.41232,-1.4118 1.41111,1.41111 0 0 0 -1.41232,-1.41026 h -2.44326 v -2.79621 z m 10.89081,3.54708 c 3.06399,2.6e-4 6.0551,0.94213 8.56641,2.69751 a 1.4111099,1.4111099 0 0 1 0.34778,1.96473 1.4111099,1.4111099 0 0 1 -1.96474,0.34985 c -2.0376,-1.42426 -4.46342,-2.18921 -6.94945,-2.18953 -2.48503,0.002 -4.90914,0.76702 -6.94531,2.1916 a 1.4111099,1.4111099 0 0 1 -1.96474,-0.34778 1.4111099,1.4111099 0 0 1 0.34778,-1.96474 c 2.51022,-1.75623 5.49871,-2.69964 8.56227,-2.70164 z m 0,5.09581 c 2.61666,2e-4 5.17118,0.80807 7.31067,2.31459 a 1.4111099,1.4111099 0 0 1 0.3421,1.9668 1.4111099,1.4111099 0 0 1 -1.96681,0.34158 c -1.66417,-1.17183 -3.65061,-1.80025 -5.68596,-1.8004 -2.03405,0.002 -4.01657,0.63232 -5.67924,1.80454 a 1.4111099,1.4111099 0 0 1 -1.96681,-0.34158 1.4111099,1.4111099 0 0 1 0.33952,-1.96526 c 2.13809,-1.5074 4.69021,-2.31847 7.30653,-2.32027 z m 0,5.09375 c 2.17015,5e-5 4.28704,0.67717 6.05493,1.93579 a 1.4111099,1.4111099 0 0 1 0.33176,1.96888 1.4111099,1.4111099 0 0 1 -1.96836,0.32969 c -1.29021,-0.91856 -2.83455,-1.41177 -4.41833,-1.4118 -1.58295,0.002 -3.1251,0.49704 -4.41369,1.41594 a 1.4111099,1.4111099 0 0 1 -1.96887,-0.33022 1.4111099,1.4111099 0 0 1 0.33021,-1.9668 c 1.76656,-1.25975 3.88295,-1.93948 6.05235,-1.94148 z" />
    <path
       id="rect3036-7"
       style="fill:#aaaaaa;fill-opacity:1;stroke:none;stroke-width:1.6;stroke-linecap:square;stroke-linejoin:miter;stroke-miterlimit:4;stroke-dasharray:none;stroke-dashoffset:0;stroke-opacity:1;paint-order:normal"
       d="m 125.684,75.554634 v 2.79622 h -2.44326 a 1.41111,1.41111 0 0 0 -1.41232,1.41025 1.41111,1.41111 0 0 0 1.41232,1.4118 h 2.44326 v 1.63504 h -2.44326 a 1.41111,1.41111 0 0 0 -1.41232,1.41025 1.41111,1.41111 0 0 0 1.41232,1.4118 h 2.44326 v 1.63504 h -2.44326 a 1.41111,1.41111 0 0 0 -1.41232,1.409729 1.41111,1.41111 0 0 0 1.41232,1.41232 h 2.44326 v 1.63453 h -2.44326 a 1.41111,1.41111 0 0 0 -1.41232,1.41231 1.41111,1.41111 0 0 0 1.41232,1.41025 h 2.44326 v 2.7957 h 21.78524 v -2.7957 h 2.44326 a 1.41111,1.41111 0 0 0 1.41232,-1.41025 1.41111,1.41111 0 0 0 -1.41232,-1.41231 h -2.44326 v -1.63453 h 2.44326 a 1.41111,1.41111 0 0 0 1.41232,-1.41232 1.41111,1.41111 0 0 0 -1.41232,-1.409729 h -2.44326 v -1.63504 h 2.44326 a 1.41111,1.41111 0 0 0 1.41232,-1.4118 1.41111,1.41111 0 0 0 -1.41232,-1.41025 h -2.44326 v -1.63504 h 2.44326 a 1.41111,1.41111 0 0 0 1.41232,-1.4118 1.41111,1.41111 0 0 0 -1.41232,-1.41025 h -2.44326 v -2.79622 z" />
    <g
       id="g5766"
       transform="translate(3.295612)">
      <path
         id="path1698"
         style="opacity:1;fill:none;fill-opacity:1;stroke:#acacac;stroke-width:2.82222;stroke-linecap:round;stroke-linejoin:miter;stroke-miterlimit:4;stroke-dasharray:none;stroke-dashoffset:0;stroke-opacity:1;paint-order:normal"
         d="m 78.862689,137.11355 c -4.114694,-2.89733 -9.024085,-4.45258 -14.056505,-4.45296 -5.031372,0.004 -9.938689,1.56208 -14.050822,4.46123"
         sodipodi:nodetypes="ccc" />
      <path
         id="path1698-7"
         style="fill:none;fill-opacity:1;stroke:#acacac;stroke-width:2.82222;stroke-linecap:round;stroke-linejoin:miter;stroke-miterlimit:4;stroke-dasharray:none;stroke-dashoffset:0;stroke-opacity:1;paint-order:normal"
         d="m 81.589654,133.06212 c -4.920882,-3.43966 -10.779606,-5.2847 -16.78347,-5.28546 -6.003055,0.004 -11.860083,1.85137 -16.778822,5.29269"
         sodipodi:nodetypes="ccc" />
      <path
         id="path1698-0"
         style="fill:none;fill-opacity:1;stroke:#acacac;stroke-width:2.82222;stroke-linecap:round;stroke-linejoin:miter;stroke-miterlimit:4;stroke-dasharray:none;stroke-dashoffset:0;stroke-opacity:1;paint-order:normal"
         d="m 76.135205,141.16498 c -3.30817,-2.3552 -7.268109,-3.62088 -11.329021,-3.62096 -4.059931,0.004 -8.017796,1.27254 -11.323341,3.62975"
         sodipodi:nodetypes="ccc" />
      <path
         id="rect3036-9"
         style="fill:#aaaaaa;fill-opacity:1;stroke:none;stroke-width:1.99978;stroke-linecap:square;stroke-linejoin:miter;stroke-miterlimit:4;stroke-dasharray:none;stroke-dashoffset:0;stroke-opacity:1;paint-order:normal"
         d="m 57.663278,144.24025 -0.489016,0.83315 h -1.709254 c -0.262137,-2.2e-4 -0.549312,0.0473 -0.801229,0.13268 -0.254983,0.0865 -0.455801,0.20567 -0.556977,0.33237 -0.102707,0.12904 -0.09299,0.25531 0.02964,0.3499 0.124163,0.0959 0.353093,0.15045 0.634647,0.15024 h 1.836492 l -0.368424,0.6279 h -1.919271 c -0.294327,-2.1e-4 -0.621359,0.0597 -0.913646,0.16757 -0.296372,0.10936 -0.536027,0.26046 -0.663772,0.42118 -0.131328,0.16457 -0.134901,0.32573 -0.0071,0.44664 0.129783,0.12285 0.382729,0.19283 0.701586,0.19261 h 2.081254 l -0.476242,0.81089 h -2.187539 c -0.697497,-2.1e-4 -1.530409,0.33537 -1.876346,0.76917 -0.172195,0.21657 -0.198775,0.42952 -0.06796,0.5896 0.132854,0.16329 0.415434,0.25618 0.783855,0.25596 h 2.400111 l -0.638223,1.08718 h -2.543699 c -0.389882,-2.1e-4 -0.84364,0.10509 -1.268272,0.29577 -0.433317,0.19432 -0.806339,0.4644 -1.036283,0.75375 -0.236076,0.29769 -0.301483,0.5911 -0.173218,0.81303 0.130305,0.22643 0.44916,0.35569 0.88401,0.35547 h 2.835472 l -1.622387,2.76333 h 28.52793 l -1.62237,-2.76333 h 2.83546 c 0.43485,2.2e-4 0.7532,-0.12904 0.88401,-0.35547 0.12766,-0.22172 0.0628,-0.51534 -0.17382,-0.81303 -0.22942,-0.28935 -0.60297,-0.55943 -1.03577,-0.75375 -0.42463,-0.19068 -0.87889,-0.29598 -1.26878,-0.29577 h -2.54312 l -0.63823,-1.08718 h 2.40011 c 0.36842,2.2e-4 0.65099,-0.0927 0.78386,-0.25596 0.13037,-0.16008 0.10429,-0.37303 -0.0686,-0.5896 -0.34542,-0.43359 -1.17833,-0.76938 -1.87583,-0.76917 h -2.18754 l -0.47624,-0.81089 h 2.08074 c 0.31937,2.2e-4 0.57231,-0.0698 0.7021,-0.19261 0.12776,-0.12091 0.12366,-0.28207 -0.007,-0.44664 -0.12775,-0.16072 -0.3674,-0.31182 -0.66377,-0.42118 -0.29229,-0.10786 -0.61983,-0.16757 -0.91365,-0.16757 h -1.9192 l -0.368422,-0.6279 h 1.836492 c 0.28155,2.1e-4 0.51048,-0.0543 0.63465,-0.15024 0.12263,-0.0946 0.13235,-0.22065 0.0291,-0.3499 -0.10066,-0.1267 -0.30149,-0.24591 -0.55647,-0.33237 -0.25192,-0.0854 -0.53909,-0.1329 -0.80123,-0.13268 h -1.709342 l -0.489015,-0.83315 z" />
    </g>
    <path
       style="fill:none;stroke:#000000;stroke-width:0.264583px;stroke-linecap:butt;stroke-linejoin:miter;stroke-opacity:1"
       d="m 32.895289,32.218875 7.13179,-12.148389 h 14.26426 l 7.13188,12.148389 h -28.52793"
       id="path5396" />
    <path
       id="path1698-7-2"
       style="fill:none;fill-opacity:1;stroke:#acacac;stroke-width:2.82222222;stroke-linecap:round;stroke-linejoin:miter;stroke-miterlimit:4;stroke-dasharray:none;stroke-dashoffset:0;stroke-opacity:1;paint-order:normal"
       d="m 39.597871,131.9752 c -4.920882,-3.43966 -10.779606,-5.2847 -16.78347,-5.28546 -6.003055,0.004 -11.860083,1.85137 -16.778822,5.29269"
       sodipodi:nodetypes="ccc" />
    <path
       id="path1698-2"
       style="fill:none;fill-opacity:1;stroke:#acacac;stroke-width:9.33333345;stroke-linecap:round;stroke-linejoin:miter;stroke-miterlimit:4;stroke-dasharray:none;stroke-dashoffset:0;stroke-opacity:1;paint-order:normal"
       d="m 136.58203,512.24023 c -14.96175,-9.74333 -32.45102,-14.95177 -50.353514,-14.95312 -17.902092,0.0142 -35.389065,5.23456 -50.34375,14.98828"
       transform="scale(0.26458333)"
       sodipodi:nodetypes="ccc" />
    <path
       id="path1698-0-8"
       style="fill:none;fill-opacity:1;stroke:#acacac;stroke-width:8.0000001;stroke-linecap:round;stroke-linejoin:miter;stroke-miterlimit:4;stroke-dasharray:none;stroke-dashoffset:0;stroke-opacity:1;paint-order:normal"
       d="M 123.39648,525.78711 C 112.14702,519.23163 99.328293,515.7444 86.228516,515.74414 73.125881,515.75705 60.303872,519.2556 49.058594,525.82422"
       transform="scale(0.26458333)"
       sodipodi:nodetypes="ccc" />
    <path
       id="rect3036-9-9"
       style="fill:#aaaaaa;fill-opacity:1;stroke:none;stroke-width:1.99978;stroke-linecap:square;stroke-linejoin:miter;stroke-miterlimit:4;stroke-dasharray:none;stroke-dashoffset:0;stroke-opacity:1;paint-order:normal"
       d="m 15.671567,143.15339 -0.48886,0.83302 H 13.47325 c -0.262136,-2.2e-4 -0.549584,0.0474 -0.801499,0.13281 -0.254985,0.0865 -0.45538,0.20558 -0.556557,0.33228 -0.102706,0.12904 -0.09317,0.25526 0.02946,0.34985 0.124164,0.0959 0.353034,0.15059 0.634588,0.15038 h 1.836578 l -0.368451,0.62787 h -1.919263 c -0.294328,-2.1e-4 -0.621353,0.0596 -0.913641,0.16743 -0.29637,0.10936 -0.535778,0.26044 -0.663525,0.42116 -0.131328,0.16457 -0.135035,0.3261 -0.0072,0.44701 0.129784,0.12284 0.382392,0.19245 0.701249,0.19223 h 2.081528 l -0.476459,0.81081 h -2.187462 c -0.697497,-2.2e-4 -1.530434,0.33566 -1.876372,0.76946 -0.172196,0.21657 -0.198511,0.42955 -0.0677,0.58962 0.132855,0.16329 0.41551,0.25602 0.783931,0.2558 h 2.399853 l -0.638204,1.08728 H 8.92059 c -0.389882,-2.2e-4 -0.844023,0.1049 -1.268655,0.29558 -0.433316,0.19432 -0.80617,0.46461 -1.036114,0.75396 -0.236075,0.29769 -0.301379,0.59094 -0.173114,0.81287 0.130304,0.22643 0.449334,0.35576 0.884182,0.35554 h 2.835486 l -1.622639,2.76314 h 28.527975 l -1.622642,-2.76314 h 2.835487 c 0.434851,2.2e-4 0.753375,-0.12911 0.884185,-0.35554 0.127658,-0.22172 0.06299,-0.51518 -0.173633,-0.81287 -0.229421,-0.28935 -0.603314,-0.55964 -1.036114,-0.75396 -0.42463,-0.19068 -0.878766,-0.2958 -1.268656,-0.29558 H 34.14334 l -0.638204,-1.08728 h 2.399853 c 0.368422,2.2e-4 0.651063,-0.0925 0.783932,-0.2558 0.13037,-0.16007 0.104161,-0.37305 -0.06873,-0.58962 -0.345421,-0.43359 -1.178353,-0.76968 -1.875856,-0.76946 h -2.187461 l -0.47594,-0.81081 h 2.080492 c 0.319371,2.2e-4 0.572493,-0.0694 0.702284,-0.19223 0.127759,-0.12091 0.123425,-0.28244 -0.0072,-0.44701 -0.127749,-0.16072 -0.367155,-0.3118 -0.663525,-0.42116 -0.29229,-0.10786 -0.619818,-0.16743 -0.913638,-0.16743 h -1.919264 l -0.368453,-0.62787 h 1.836581 c 0.281549,2.1e-4 0.510416,-0.0544 0.634588,-0.15038 0.122629,-0.0946 0.132188,-0.2206 0.02894,-0.34985 -0.100661,-0.1267 -0.301575,-0.24582 -0.556556,-0.33228 -0.251918,-0.0854 -0.538843,-0.13303 -0.800984,-0.13281 h -1.709457 l -0.488857,-0.83302 z m 7.130831,2.78019 a 8.2355371,6.6874611 0 0 1 7.352522,3.67523 8.2355371,6.6874611 0 0 1 -7.352522,3.68453 8.2355371,6.6874611 0 0 1 -0.766361,-0.0326 3.5633406,4.3882159 0 0 0 1.628839,-3.68247 3.5633406,4.3882159 0 0 0 -1.550808,-3.61838 8.2355371,6.6874611 0 0 1 0.68833,-0.0264 z m -1.627807,0.13333 a 3.5633406,4.3882159 0 0 0 -1.431438,3.51141 3.5633406,4.3882159 0 0 0 1.527556,3.59617 8.2355371,6.6874611 0 0 1 -5.818767,-3.56103 8.2355371,6.6874611 0 0 1 5.722649,-3.54655 z" />
    <g
       id="g10693"
       transform="translate(-8.8485064,-36.773848)">
      <path
         id="path1698-7-2-4"
         style="fill:none;fill-opacity:1;stroke:#acacac;stroke-width:2.82222;stroke-linecap:round;stroke-linejoin:miter;stroke-miterlimit:4;stroke-dasharray:none;stroke-dashoffset:0;stroke-opacity:1;paint-order:normal"
         d="m 62.903881,218.5672 c -4.920882,-3.43966 -10.779606,-5.2847 -16.78347,-5.28546 -6.003055,0.004 -11.860083,1.85137 -16.778822,5.29269"
         sodipodi:nodetypes="ccc" />
      <path
         id="path1698-2-7"
         style="fill:none;fill-opacity:1;stroke:#acacac;stroke-width:2.46944;stroke-linecap:round;stroke-linejoin:miter;stroke-miterlimit:4;stroke-dasharray:none;stroke-dashoffset:0;stroke-opacity:1;paint-order:normal"
         d="m 59.443338,222.12223 c -3.958629,-2.57792 -8.585999,-3.95599 -13.3227,-3.95635 -4.736595,0.004 -9.363357,1.38498 -13.320117,3.96565"
         sodipodi:nodetypes="ccc" />
      <path
         id="path1698-0-8-8"
         style="fill:none;fill-opacity:1;stroke:#acacac;stroke-width:2.11667;stroke-linecap:round;stroke-linejoin:miter;stroke-miterlimit:4;stroke-dasharray:none;stroke-dashoffset:0;stroke-opacity:1;paint-order:normal"
         d="m 55.954662,225.70651 c -2.97642,-1.73447 -6.368041,-2.65714 -9.834024,-2.65721 -3.466739,0.003 -6.859229,0.92908 -9.834542,2.66703"
         sodipodi:nodetypes="ccc" />
    </g>
    <g
       id="g9814"
       transform="translate(-82.241014,-164.43179)">
      <path
         style="fill:#170e0e;fill-opacity:1;stroke:none;stroke-width:0.472098px;stroke-linecap:butt;stroke-linejoin:miter;stroke-opacity:1"
         d="m 103.44505,251.25386 12.27432,-22.47304 h 24.54976 l 12.27446,22.47304 h -49.09854"
         id="path5396-5" />
      <path
         style="fill:none;stroke:#000000;stroke-width:3.52778;stroke-linecap:round;stroke-linejoin:round;stroke-miterlimit:4;stroke-dasharray:none;stroke-opacity:1"
         d="m 97.998993,248.77849 6.574947,-4.15582 h 42.43885 l 5.19679,5.17168"
         id="path7108-3"
         sodipodi:nodetypes="cccc" />
      <path
         style="fill:none;stroke:#000000;stroke-width:2.99861;stroke-linecap:round;stroke-linejoin:round;stroke-miterlimit:4;stroke-dasharray:none;stroke-opacity:1"
         d="m 103.92995,239.9103 5.16645,-2.4788 h 37.91639 l 5.19679,5.17168"
         id="path7108-3-0"
         sodipodi:nodetypes="cccc" />
      <path
         style="fill:none;stroke:#000000;stroke-width:2.46944;stroke-linecap:round;stroke-linejoin:round;stroke-miterlimit:4;stroke-dasharray:none;stroke-opacity:1"
         d="m 109.02514,233.06373 3.94537,-1.95529 h 34.04228 l 5.19679,5.17168"
         id="path7108-3-3"
         sodipodi:nodetypes="cccc" />
      <rect
         style="opacity:1;fill:#170e0e;fill-opacity:1;stroke:none;stroke-width:3.30154;stroke-linecap:round;stroke-linejoin:round;stroke-miterlimit:4;stroke-dasharray:none;stroke-dashoffset:0;stroke-opacity:1;paint-order:normal"
         id="rect8695"
         width="42.210911"
         height="33.611057"
         x="120.38912"
         y="221.7366" />
    </g>
    <path
       id="path5396-5-6"
       style="fill:#b8b8b8;fill-opacity:1;stroke:none;stroke-width:0.315246;stroke-linecap:butt;stroke-linejoin:miter;stroke-miterlimit:4;stroke-dasharray:none;stroke-opacity:1"
       d="m 29.076021,192.15165 -0.398425,0.72967 h -1.499135 a 0.82474357,0.82474357 0 0 0 -0.365352,0.0858 l -2.63498,1.30638 a 0.82466115,0.82466115 0 0 0 -0.373105,1.10484 0.82466115,0.82466115 0 0 0 1.104844,0.37311 l 2.461348,-1.22008 h 0.405143 l -1.308965,2.39623 H 24.59154 a 1.0014757,1.0014757 0 0 0 -0.433049,0.0992 l -3.449917,1.65572 a 1.0013757,1.0013757 0 0 0 -0.469739,1.33583 1.0013757,1.0013757 0 0 0 1.335318,0.46922 l 3.244762,-1.55701 h 0.555006 l -1.43402,2.62413 h -2.369365 a 1.1782081,1.1782081 0 0 0 -0.628902,0.18139 l -4.39198,2.77606 a 1.1780902,1.1780902 0 0 0 -0.365353,1.62574 1.1780902,1.1780902 0 0 0 1.625225,0.36638 l 4.102592,-2.59364 h 0.74104 l -1.775087,3.25095 h 32.792315 l -1.775087,-3.25095 h 0.74104 l 4.102592,2.59364 a 1.1780902,1.1780902 0 0 0 1.625224,-0.36638 1.1780902,1.1780902 0 0 0 -0.365352,-1.62574 l -4.391981,-2.77606 a 1.1782081,1.1782081 0 0 0 -0.628901,-0.18139 h -2.369365 l -1.43402,-2.62413 h 0.555006 l 3.244762,1.55701 a 1.0013757,1.0013757 0 0 0 1.335318,-0.46922 1.0013757,1.0013757 0 0 0 -0.469739,-1.33583 l -3.449918,-1.65572 a 1.0014757,1.0014757 0 0 0 -0.433048,-0.0992 h -1.875854 l -1.308965,-2.39623 h 0.405143 l 2.46135,1.22008 a 0.82466115,0.82466115 0 0 0 1.104842,-0.37311 0.82466115,0.82466115 0 0 0 -0.373105,-1.10484 l -2.63498,-1.30638 a 0.82474357,0.82474357 0 0 0 -0.365353,-0.0858 h -1.499134 l -0.398426,-0.72967 z m 8.196916,2.90421 v 5.2e-4 a 10.295813,8.3604562 0 0 1 9.191686,4.59455 10.295813,8.3604562 0 0 1 -9.191686,4.60592 10.295813,8.3604562 0 0 1 -0.958082,-0.0408 4.4547776,5.4860113 0 0 0 2.036569,-4.60334 4.4547776,5.4860113 0 0 0 -1.938901,-4.52375 10.295813,8.3604562 0 0 1 0.860414,-0.0331 z m -2.035019,0.16692 a 4.4547776,5.4860113 0 0 0 -1.789554,4.38991 4.4547776,5.4860113 0 0 0 1.909445,4.49585 10.295813,8.3604562 0 0 1 -7.273975,-4.45192 10.295813,8.3604562 0 0 1 7.154084,-4.43384 z" />
    <path
       id="rect3036-7-1"
       style="fill:#aaaaaa;fill-opacity:1;stroke:none;stroke-width:1.6;stroke-linecap:square;stroke-linejoin:miter;stroke-miterlimit:4;stroke-dasharray:none;stroke-dashoffset:0;stroke-opacity:1;paint-order:normal"
       d="m 139.14635,23.163155 v 2.79622 h -2.44326 c -0.77947,-6.69e-4 -1.41185,0.630779 -1.41232,1.41025 -3.8e-4,0.780077 0.63224,1.412469 1.41232,1.4118 h 2.44326 v 1.63504 h -2.44326 c -0.77947,-6.69e-4 -1.41185,0.630779 -1.41232,1.41025 -3.8e-4,0.780077 0.63224,1.412469 1.41232,1.4118 h 2.44326 v 1.63504 h -2.44326 c -0.77927,-6.69e-4 -1.41156,0.630462 -1.41232,1.40973 -6.7e-4,0.78028 0.63204,1.412989 1.41232,1.41232 h 2.44326 v 1.63453 h -2.44326 c -0.78028,-6.69e-4 -1.41298,0.632034 -1.41232,1.41231 4.7e-4,0.77947 0.63285,1.410919 1.41232,1.41025 h 2.44326 v 2.7957 h 23.37274 v -2.7957 h 2.44326 c 0.77947,6.69e-4 1.41185,-0.63078 1.41232,-1.41025 6.6e-4,-0.780276 -0.63204,-1.412979 -1.41232,-1.41231 h -2.44326 v -1.63453 h 2.44326 c 0.78028,6.69e-4 1.41299,-0.63204 1.41232,-1.41232 -7.6e-4,-0.779268 -0.63305,-1.410399 -1.41232,-1.40973 h -2.44326 v -1.63504 h 2.44326 c 0.78008,6.69e-4 1.4127,-0.631723 1.41232,-1.4118 -4.7e-4,-0.779471 -0.63285,-1.410919 -1.41232,-1.41025 h -2.44326 v -1.63504 h 2.44326 c 0.78008,6.69e-4 1.4127,-0.631723 1.41232,-1.4118 -4.7e-4,-0.779471 -0.63285,-1.410919 -1.41232,-1.41025 h -2.44326 v -2.79622 z"
       sodipodi:nodetypes="ccccccccccccccccccccccccccccccccccccccccccccc" />
    <path
       id="rect3036-7-1-8"
       style="fill:#aaaaaa;fill-opacity:1;stroke:none;stroke-width:1.6;stroke-linecap:square;stroke-linejoin:miter;stroke-miterlimit:4;stroke-dasharray:none;stroke-dashoffset:0;stroke-opacity:1;paint-order:normal"
       d="m 86.305246,184.06004 v 2.79622 h -2.443263 a 1.41111,1.41111 0 0 0 -1.412317,1.41024 1.41111,1.41111 0 0 0 1.412317,1.4118 h 2.443263 v 1.63505 h -2.443263 a 1.41111,1.41111 0 0 0 -1.412317,1.41025 1.41111,1.41111 0 0 0 1.412317,1.4118 h 2.443263 v 1.63504 h -2.443263 a 1.41111,1.41111 0 0 0 -1.412317,1.40973 1.41111,1.41111 0 0 0 1.412317,1.41232 h 2.443263 v 1.63452 h -2.443263 a 1.41111,1.41111 0 0 0 -1.412317,1.41232 1.41111,1.41111 0 0 0 1.412317,1.41025 h 2.443263 v 2.7957 h 21.785234 v -2.7957 h 2.44326 a 1.41111,1.41111 0 0 0 1.41231,-1.41025 1.41111,1.41111 0 0 0 -1.41231,-1.41232 h -2.44326 v -1.63452 h 2.44326 a 1.41111,1.41111 0 0 0 1.41231,-1.41232 1.41111,1.41111 0 0 0 -1.41231,-1.40973 h -2.44326 v -1.63504 h 2.44326 a 1.41111,1.41111 0 0 0 1.41231,-1.4118 1.41111,1.41111 0 0 0 -1.41231,-1.41025 h -2.44326 v -1.63505 h 2.44326 a 1.41111,1.41111 0 0 0 1.41231,-1.4118 1.41111,1.41111 0 0 0 -1.41231,-1.41024 h -2.44326 v -2.79622 z m 2.694408,4.04058 a 1.4111099,1.4111099 0 0 1 1.077457,0.42582 c 1.0274,1.05691 3.43753,2.02882 5.18934,2.2934 a 1.4111099,1.4111099 0 0 1 0.51935,0.18707 v -0.64648 a 1.4111099,1.4111099 0 0 1 1.41232,-1.40973 1.4111099,1.4111099 0 0 1 1.41025,1.40973 V 191.01 a 1.4111099,1.4111099 0 0 1 0.51935,-0.19016 c 1.751809,-0.26458 4.164009,-1.2365 5.191409,-2.2934 a 1.4111099,1.4111099 0 0 1 1.99626,-0.0269 1.4111099,1.4111099 0 0 1 0.0274,1.99575 c -1.7945,1.84605 -4.53214,2.77361 -6.792869,3.11505 a 1.4111099,1.4111099 0 0 1 -0.94154,-0.19017 v 8.56175 a 1.4111099,1.4111099 0 0 1 -1.41025,1.40974 1.4111099,1.4111099 0 0 1 -1.41232,-1.40974 v -8.56071 a 1.4111099,1.4111099 0 0 1 -0.93896,0.18965 c -2.26073,-0.34144 -5.000433,-1.26953 -6.794933,-3.11557 a 1.4111099,1.4111099 0 0 1 0.02894,-1.99575 1.4111099,1.4111099 0 0 1 0.918808,-0.39894 z m 0.04496,4.40438 a 1.4111099,1.4111099 0 0 1 0.739489,0.25219 c 1.155138,0.80687 3.024448,1.42416 4.560448,1.62108 a 1.4111099,1.4111099 0 0 1 1.22059,1.58027 1.4111099,1.4111099 0 0 1 -1.57975,1.21853 c -1.93846,-0.24853 -4.105943,-0.90925 -5.818244,-2.1053 a 1.4111099,1.4111099 0 0 1 -0.347782,-1.96525 1.4111099,1.4111099 0 0 1 1.225249,-0.60152 z m 16.307006,0 a 1.4111099,1.4111099 0 0 1 1.22525,0.60152 1.4111099,1.4111099 0 0 1 -0.34933,1.96525 c -1.7123,1.19605 -3.87977,1.85677 -5.81825,2.1053 a 1.4111099,1.4111099 0 0 1 -1.578199,-1.21853 1.4111099,1.4111099 0 0 1 1.220599,-1.58027 c 1.53601,-0.19692 3.40533,-0.81422 4.56045,-1.62108 a 1.4111099,1.4111099 0 0 1 0.73948,-0.25219 z m -16.505444,4.08606 a 1.4111099,1.4111099 0 0 1 0.666626,0.16433 c 1.217889,0.64581 2.547869,1.05675 3.919659,1.21078 a 1.4111099,1.4111099 0 0 1 1.24437,1.56063 1.4111099,1.4111099 0 0 1 -1.56063,1.24385 c -1.72379,-0.19356 -3.394349,-0.70927 -4.925797,-1.52135 a 1.4111099,1.4111099 0 0 1 -0.586013,-1.90841 1.4111099,1.4111099 0 0 1 0.831991,-0.6873 1.4111099,1.4111099 0 0 1 0.409794,-0.0625 z m 16.702854,5.2e-4 a 1.4111099,1.4111099 0 0 1 0.40876,0.062 1.4111099,1.4111099 0 0 1 0.83406,0.6873 1.4111099,1.4111099 0 0 1 -0.58601,1.90841 c -1.53145,0.81208 -3.20356,1.32779 -4.92735,1.52135 a 1.4111099,1.4111099 0 0 1 -1.559079,-1.24385 1.4111099,1.4111099 0 0 1 1.244369,-1.56063 c 1.37178,-0.15403 2.70228,-0.56497 3.92018,-1.21078 a 1.4111099,1.4111099 0 0 1 0.66507,-0.16381 z" />
    <path
       style="fill:none;stroke:#4c4c4c;stroke-width:2.82222;stroke-linecap:butt;stroke-linejoin:miter;stroke-miterlimit:4;stroke-dasharray:none;stroke-opacity:1"
       d="m 141.64678,29.321258 c 0,0 4.37004,-2.120489 9.18594,-2.120489 4.8159,0 9.18594,1.960244 9.18594,1.960244"
       id="path17572"
       sodipodi:nodetypes="csc" />
    <path
       style="fill:none;stroke:#4c4c4c;stroke-width:2.82222;stroke-linecap:butt;stroke-linejoin:miter;stroke-miterlimit:4;stroke-dasharray:none;stroke-opacity:1"
       d="m 142.72435,34.41224 c 0,0 3.29247,-1.537471 8.10837,-1.537471 4.8159,0 8.10837,1.377227 8.10837,1.377227"
       id="path17572-1"
       sodipodi:nodetypes="csc" />
    <path
       style="fill:none;stroke:#4c4c4c;stroke-width:2.82222;stroke-linecap:butt;stroke-linejoin:miter;stroke-miterlimit:4;stroke-dasharray:none;stroke-opacity:1"
       d="m 143.71299,38.990852 c 0,0 2.30383,-1.213907 7.11973,-1.213907 4.8159,0 7.11973,1.053663 7.11973,1.053663"
       id="path17572-1-7"
       sodipodi:nodetypes="csc" />
    <path
       id="path11040"
       style="fill:none;fill-opacity:1;stroke:#000000;stroke-width:2.82222;stroke-linecap:round;stroke-linejoin:round;stroke-miterlimit:4;stroke-dasharray:none;stroke-dashoffset:0;stroke-opacity:1;paint-order:normal"
       d="m 141.64678,29.321259 c 1.79254,1.41931 3.99998,1.971508 6.00625,2.274518"
       sodipodi:nodetypes="cc" />
    <path
       id="path11040-5"
       style="fill:none;fill-opacity:1;stroke:#000000;stroke-width:2.82222;stroke-linecap:round;stroke-linejoin:round;stroke-miterlimit:4;stroke-dasharray:none;stroke-dashoffset:0;stroke-opacity:1;paint-order:normal"
       d="m 142.72435,34.41224 c 1.69607,1.07356 3.06658,1.346641 4.92868,1.149774"
       sodipodi:nodetypes="cc"
       inkscape:transform-center-x="2.9418429"
       inkscape:transform-center-y="-0.54293544" />
    <path
       id="path11040-54"
       style="fill:none;fill-opacity:1;stroke:#000000;stroke-width:2.82222;stroke-linecap:round;stroke-linejoin:round;stroke-miterlimit:4;stroke-dasharray:none;stroke-dashoffset:0;stroke-opacity:1;paint-order:normal"
       d="m 143.71299,38.990852 c 1.68958,0.707963 2.96694,0.555531 3.94004,0.390907"
       sodipodi:nodetypes="cc"
       inkscape:transform-center-x="2.3892179"
       inkscape:transform-center-y="0.0026301434" />
    <path
       id="path11040-7"
       style="fill:none;fill-opacity:1;stroke:#000000;stroke-width:2.82222;stroke-linecap:round;stroke-linejoin:round;stroke-miterlimit:4;stroke-dasharray:none;stroke-dashoffset:0;stroke-opacity:1;paint-order:normal"
       d="m 160.01866,29.161015 c -1.79254,1.41931 -3.99998,1.971508 -6.00625,2.274518"
       sodipodi:nodetypes="cc" />
    <path
       id="path11040-5-2"
       style="fill:none;fill-opacity:1;stroke:#000000;stroke-width:2.82222;stroke-linecap:round;stroke-linejoin:round;stroke-miterlimit:4;stroke-dasharray:none;stroke-dashoffset:0;stroke-opacity:1;paint-order:normal"
       d="m 158.94109,34.251996 c -1.69607,1.07356 -3.06658,1.346641 -4.92868,1.149774"
       sodipodi:nodetypes="cc"
       inkscape:transform-center-x="2.9418429"
       inkscape:transform-center-y="-0.54293544" />
    <path
       id="path11040-54-2"
       style="fill:none;fill-opacity:1;stroke:#000000;stroke-width:2.82222;stroke-linecap:round;stroke-linejoin:round;stroke-miterlimit:4;stroke-dasharray:none;stroke-dashoffset:0;stroke-opacity:1;paint-order:normal"
       d="m 157.95245,38.830608 c -1.68958,0.707963 -2.96694,0.555531 -3.94004,0.390907"
       sodipodi:nodetypes="cc"
       inkscape:transform-center-x="2.3892179"
       inkscape:transform-center-y="0.0026301434" />
    <path
       style="fill:none;stroke:#000000;stroke-width:2.82222;stroke-linecap:round;stroke-linejoin:miter;stroke-miterlimit:4;stroke-dasharray:none;stroke-opacity:1"
       d="m 150.83272,29.998881 v 6.456685"
       id="path12318"
       sodipodi:nodetypes="cc" />
    <path
       id="rect3036-7-1-1"
       style="fill:#aaaaaa;fill-opacity:1;stroke:none;stroke-width:1.6;stroke-linecap:square;stroke-linejoin:miter;stroke-miterlimit:4;stroke-dasharray:none;stroke-dashoffset:0;stroke-opacity:1;paint-order:normal"
       d="M 100.31348,22.513288 V 25.3095 h -2.443263 c -0.77947,-6.69e-4 -1.411845,0.630778 -1.412316,1.410248 -3.79e-4,0.780079 0.632237,1.41247 1.412316,1.411801 h 2.443263 v 1.635043 h -2.443263 c -0.77947,-6.7e-4 -1.411845,0.630777 -1.412316,1.41025 -3.79e-4,0.780076 0.632237,1.412468 1.412316,1.411798 h 2.443263 v 1.635043 h -2.443263 c -0.779269,-6.69e-4 -1.411557,0.630465 -1.412316,1.409735 -6.7e-4,0.78028 0.632036,1.412986 1.412316,1.412316 h 2.443263 v 1.634525 h -2.443263 c -0.78028,-6.7e-4 -1.412975,0.632042 -1.412316,1.412316 4.71e-4,0.779471 0.632846,1.41092 1.412316,1.410251 h 2.443263 v 2.795696 h 23.37273 v -2.795696 h 2.44326 c 0.77947,6.69e-4 1.41185,-0.63078 1.41232,-1.410251 6.6e-4,-0.780274 -0.63204,-1.412986 -1.41232,-1.412316 h -2.44326 v -1.634525 h 2.44326 c 0.78028,6.7e-4 1.41299,-0.632036 1.41232,-1.412316 -7.6e-4,-0.77927 -0.63304,-1.410404 -1.41232,-1.409735 h -2.44326 V 32.58864 h 2.44326 c 0.78009,6.7e-4 1.4127,-0.631722 1.41232,-1.411798 -4.7e-4,-0.779473 -0.63285,-1.41092 -1.41232,-1.41025 h -2.44326 v -1.635043 h 2.44326 c 0.78009,6.69e-4 1.4127,-0.631722 1.41232,-1.411801 -4.7e-4,-0.77947 -0.63285,-1.410917 -1.41232,-1.410248 h -2.44326 v -2.796212 z m 11.68507,1.317747 a 1.4111099,1.4111099 0 0 1 1.41077,1.358059 c 3.43224,0.235905 6.40368,1.25744 7.68274,1.756997 0.0326,-0.0019 0.0653,-0.0037 0.0982,-0.0036 0.0588,2.01e-4 0.1173,0.0031 0.1757,0.0098 0.41355,0.04795 0.7926,0.259662 1.0511,0.58601 0.53703,0.678307 0.42203,1.668036 -0.25632,2.205035 -1.14459,0.906274 -2.3975,1.495205 -3.6406,1.896006 0.57264,0.147521 1.05482,0.289187 1.4056,0.404112 0.0585,-0.0068 0.11743,-0.01117 0.17673,-0.01137 0.11737,-4.4e-4 0.23479,0.01362 0.34934,0.03927 0.40609,0.09097 0.75945,0.337931 0.98236,0.689362 0.46317,0.731168 0.24313,1.705131 -0.48834,2.167826 -1.13695,0.719656 -2.26968,1.150197 -3.4401,1.335836 0.59947,0.129019 1.08361,0.253805 1.42162,0.358635 0.0619,-0.0078 0.12404,-0.0121 0.18655,-0.0124 0.20613,-0.0011 0.41064,0.03898 0.60152,0.116787 0.38508,0.158269 0.69127,0.463783 0.85162,0.848011 0.33329,0.797441 -0.0448,1.718199 -0.84181,2.052587 -2.02704,0.849363 -3.7655,0.668409 -4.80849,0.491961 -0.76267,-0.128992 -1.30384,-0.790974 -1.3069,-1.539441 -0.0657,-0.0039 -0.13017,-0.0083 -0.19895,-0.01137 v 3.000332 a 1.4111099,1.4111099 0 0 1 -1.41232,1.410251 1.4111099,1.4111099 0 0 1 -1.40973,-1.410251 V 38.5769 c -0.0707,0.0039 -0.13766,0.0091 -0.20567,0.01395 0.0744,0.808212 -0.48695,1.551752 -1.30018,1.689303 -1.04298,0.176448 -2.78198,0.357405 -4.80901,-0.491961 -0.79699,-0.334385 -1.17457,-1.255143 -0.84129,-2.052587 0.23947,-0.57109 0.79268,-0.94937 1.4118,-0.96325 0.0475,-0.0011 0.0949,9.16e-4 0.14211,0.0041 0.32911,-0.122764 0.7385,-0.261549 1.2547,-0.396359 -1.08116,-0.205243 -2.13302,-0.623674 -3.18791,-1.291395 -0.73113,-0.462674 -0.95113,-1.436774 -0.48835,-2.167826 0.22291,-0.35143 0.57627,-0.598392 0.98237,-0.689364 0.11435,-0.02561 0.23267,-0.03967 0.34985,-0.03927 0.0383,1.16e-4 0.0762,0.0018 0.11421,0.0047 0.33717,-0.124883 0.7959,-0.277826 1.34617,-0.438216 -1.20209,-0.399738 -2.41028,-0.978815 -3.5171,-1.855184 -0.67833,-0.537001 -0.79491,-1.526731 -0.25787,-2.205035 0.25849,-0.326348 0.63755,-0.538059 1.0511,-0.58601 0.0582,-0.0069 0.11503,-0.0095 0.17363,-0.0098 0.0175,-6.1e-5 0.0348,0.0016 0.0522,0.0021 1.27785,-0.541261 4.26896,-1.657167 7.73338,-1.912027 a 1.4111099,1.4111099 0 0 1 1.40559,-1.361676 z m 9.19169,3.429767 c -0.28376,-0.0011 -0.56087,0.09319 -0.78341,0.269232 -1.52515,1.207577 -3.49458,1.726065 -5.41363,2.015898 -0.68654,0.103161 -1.15731,0.741426 -1.05316,1.427821 0.10386,0.685353 0.74032,1.153941 1.42575,1.050581 2.09512,-0.316428 4.53652,-0.898818 6.59805,-2.53111 0.54379,-0.43049 0.63361,-1.214263 0.20309,-1.758034 -0.20628,-0.26043 -0.50611,-0.428366 -0.83613,-0.466638 -0.0466,-0.0054 -0.0937,-0.0076 -0.14056,-0.0077 z m -18.38079,0.158129 c -0.0468,3.01e-4 -0.0921,0.0043 -0.13849,0.0098 a 0.15876587,0.15876587 0 0 1 -0.002,0 c -0.33002,0.03827 -0.62984,0.206206 -0.83612,0.466638 -0.43052,0.543769 -0.34071,1.327542 0.20308,1.758032 2.06152,1.632286 4.5024,2.212618 6.59754,2.529046 0.68527,0.103368 1.32166,-0.363355 1.42575,-1.048515 0.10415,-0.686392 -0.3661,-1.324654 -1.05265,-1.427821 -1.91904,-0.289835 -3.89055,-0.80831 -5.41569,-2.015897 -0.22249,-0.176205 -0.49754,-0.272301 -0.78135,-0.271301 z m 10.60142,0.603064 v 0.641821 c 0.10102,0.207047 0.15798,0.439299 0.15813,0.684713 v 1.51412 c 0.0144,10e-4 0.029,0.0016 0.0434,0.0026 -0.0413,-0.795952 0.52934,-1.511067 1.33377,-1.631942 0.80361,-0.12137 1.60998,-0.284623 2.38383,-0.519348 -1.14284,-0.299464 -2.48329,-0.575443 -3.91914,-0.691947 z m -2.82205,0.0052 c -1.50387,0.132956 -2.90091,0.456163 -4.07417,0.798917 0.82095,0.260768 1.68174,0.437954 2.53886,0.567407 0.75216,0.113025 1.30003,0.745559 1.33429,1.477947 0.0142,-0.0012 0.0286,-0.0025 0.0429,-0.0036 v -1.519288 c 1.5e-4,-0.245523 0.0569,-0.478092 0.15813,-0.685229 z m 1.40973,0.06976 c -0.69275,6.78e-4 -1.25118,0.558851 -1.2516,1.251604 V 35.8055 c 4.2e-4,0.692753 0.55885,1.251442 1.2516,1.252119 0.69367,5.96e-4 1.25377,-0.558458 1.25419,-1.252119 v -6.456971 c -4.2e-4,-0.693661 -0.56052,-1.252199 -1.25419,-1.251604 z m 8.10545,4.253487 c -0.23531,8.02e-4 -0.46665,0.06812 -0.66559,0.193789 -1.51371,0.95809 -2.45667,1.139364 -4.1274,0.962731 -0.68902,-0.0725 -1.30316,0.424196 -1.37666,1.11311 -0.0735,0.690359 0.42264,1.304637 1.11311,1.377178 a 0.15876587,0.15876587 0 0 1 0.002,0 c 2.04071,0.215749 3.86033,-0.15552 5.72833,-1.337903 0.58639,-0.37093 0.75837,-1.142426 0.38706,-1.728578 -0.17789,-0.280448 -0.45934,-0.478269 -0.78342,-0.550871 -0.0914,-0.0205 -0.18338,-0.0298 -0.27698,-0.02946 z m -16.20883,0.160197 c -0.0935,-3.09e-4 -0.18578,0.009 -0.27698,0.02946 -0.32407,0.0726 -0.60553,0.270423 -0.78342,0.550871 -0.371,0.586055 -0.1975,1.357667 0.38861,1.728578 1.86802,1.182394 3.68764,1.553652 5.72833,1.337903 0.68966,-0.07256 1.18613,-0.685438 1.11363,-1.375111 -0.0726,-0.68966 -0.68544,-1.187638 -1.37511,-1.115176 -1.67075,0.176633 -2.61526,-0.0051 -4.12895,-0.963251 -0.19908,-0.125748 -0.43065,-0.192553 -0.66611,-0.19327 z m 9.67383,1.17874 v 2.068608 c 0.14595,0.0076 0.28809,0.01633 0.42892,0.02584 -0.27779,-0.318497 -0.42796,-0.746903 -0.37983,-1.198893 0.0354,-0.331788 0.17253,-0.628655 0.37724,-0.862997 -0.14023,-0.01185 -0.28177,-0.02299 -0.42633,-0.03256 z m -3.13831,0.0072 c -0.1912,0.01422 -0.37672,0.03148 -0.56017,0.05013 0.27843,0.250928 0.46892,0.601729 0.51108,1.002522 0.0396,0.376793 -0.0583,0.736962 -0.25322,1.030428 0.0997,-0.0067 0.20004,-0.0134 0.30231,-0.01912 z m 8.68526,3.232362 c -0.16447,8.09e-4 -0.32895,0.03398 -0.48059,0.09767 -1.41821,0.594254 -2.33174,0.465561 -3.24787,0.310576 -0.68399,-0.1157 -1.32787,0.343275 -1.44332,1.027326 -0.11571,0.683856 0.34347,1.327661 1.02733,1.443324 1.02121,0.172765 2.67988,0.345461 4.63279,-0.47284 0.63892,-0.268062 0.93691,-0.999392 0.66973,-1.63866 -0.12796,-0.30662 -0.37225,-0.549626 -0.67955,-0.675928 -0.15228,-0.06208 -0.31408,-0.09238 -0.47852,-0.09147 z m -14.26373,0.159681 v 5.16e-4 c -0.49463,0.01109 -0.93574,0.3132 -1.12706,0.769461 -0.26575,0.638805 0.0341,1.368809 0.67231,1.636593 1.95289,0.818301 3.61159,0.645605 4.63279,0.47284 0.68386,-0.115668 1.14098,-0.759989 1.02526,-1.443839 -0.11544,-0.684049 -0.75931,-1.143021 -1.44332,-1.027327 -0.91612,0.154985 -1.83017,0.283678 -3.24838,-0.310576 -0.1618,-0.06772 -0.33625,-0.101568 -0.5116,-0.09767 z" />
    <path
       id="rect3036-7-1-12"
       style="fill:#aaaaaa;fill-opacity:1;stroke:none;stroke-width:1.6;stroke-linecap:square;stroke-linejoin:miter;stroke-miterlimit:4;stroke-dasharray:none;stroke-dashoffset:0;stroke-opacity:1;paint-order:normal"
       d="m 144.86627,182.55974 v 2.79673 H 142.423 c -0.77947,-6.6e-4 -1.41184,0.63078 -1.41231,1.41025 -3.8e-4,0.78008 0.63223,1.41247 1.41231,1.4118 h 2.44327 v 1.63505 H 142.423 c -0.77947,-6.7e-4 -1.41184,0.63078 -1.41231,1.41025 -3.8e-4,0.78007 0.63223,1.41247 1.41231,1.41179 h 2.44327 v 1.63453 H 142.423 c -0.77927,-6.6e-4 -1.41156,0.63047 -1.41231,1.40973 -6.7e-4,0.78028 0.63203,1.41299 1.41231,1.41232 h 2.44327 v 1.63504 H 142.423 c -0.78028,-6.6e-4 -1.41297,0.63153 -1.41231,1.4118 4.7e-4,0.77947 0.63284,1.41092 1.41231,1.41025 h 2.44327 v 2.79622 h 25.48939 v -2.79622 h 2.44327 c 0.77947,6.7e-4 1.41184,-0.63078 1.41231,-1.41025 6.6e-4,-0.78027 -0.63203,-1.41246 -1.41231,-1.4118 h -2.44327 v -1.63504 h 2.44327 c 0.78028,6.7e-4 1.41298,-0.63204 1.41231,-1.41232 -7.6e-4,-0.77926 -0.63304,-1.41039 -1.41231,-1.40973 h -2.44327 v -1.63453 h 2.44327 c 0.78008,6.8e-4 1.41269,-0.63172 1.41231,-1.41179 -4.7e-4,-0.77947 -0.63284,-1.41092 -1.41231,-1.41025 h -2.44327 v -1.63505 h 2.44327 c 0.78008,6.7e-4 1.41269,-0.63172 1.41231,-1.4118 -4.7e-4,-0.77947 -0.63284,-1.41091 -1.41231,-1.41025 h -2.44327 v -2.79673 z m 21.93509,4.30775 v 5.2e-4 a 1.41111,1.41111 0 0 1 0.15813,0.009 1.41111,1.41111 0 0 1 0.94361,0.5271 1.41111,1.41111 0 0 1 -0.23048,1.98283 c -2.09491,1.65872 -4.56649,2.24413 -6.67194,2.56211 a 1.41111,1.41111 0 0 1 -1.60559,-1.18339 1.41111,1.41111 0 0 1 1.18391,-1.60765 c 1.90709,-0.28803 3.85162,-0.80448 5.34179,-1.98437 a 1.41111,1.41111 0 0 1 0.88057,-0.30593 z m -18.38079,0.1602 a 1.41111,1.41111 0 0 1 0.88108,0.30592 c 1.49017,1.1799 3.43265,1.69635 5.33973,1.98438 a 1.41111,1.41111 0 0 1 1.18546,1.60765 1.41111,1.41111 0 0 1 -1.60766,1.18339 c -2.10546,-0.31798 -4.57497,-0.90339 -6.66988,-2.56211 a 1.41111,1.41111 0 0 1 -0.23047,-1.98283 1.41111,1.41111 0 0 1 0.94361,-0.5271 1.41111,1.41111 0 0 1 0.15813,-0.009 z m 9.18962,0.67903 a 1.41111,1.41111 0 0 1 1.4118,1.41025 v 6.45697 a 1.41111,1.41111 0 0 1 -1.4118,1.41025 1.41111,1.41111 0 0 1 -1.41025,-1.41025 v -6.45697 a 1.41111,1.41111 0 0 1 1.41025,-1.41025 z m 8.1039,4.25245 a 1.41111,1.41111 0 0 1 0.31419,0.0346 1.41111,1.41111 0 0 1 0.88263,0.62115 1.41111,1.41111 0 0 1 -0.4377,1.94717 c -1.89495,1.19945 -3.76191,1.5805 -5.83168,1.36168 a 1.41111,1.41111 0 0 1 -1.25419,-1.55288 1.41111,1.41111 0 0 1 1.55081,-1.25367 c 1.65441,0.17492 2.52843,0.008 4.02559,-0.93948 a 1.41111,1.41111 0 0 1 0.75035,-0.21859 z m -16.2078,0.15968 a 1.41111,1.41111 0 0 1 0.75034,0.21911 c 1.49718,0.94697 2.37064,1.11387 4.02508,0.93896 a 1.41111,1.41111 0 0 1 1.55288,1.25419 1.41111,1.41111 0 0 1 -1.25574,1.55287 c -2.06978,0.21883 -3.93724,-0.16223 -5.8322,-1.36167 a 1.41111,1.41111 0 0 1 -0.43718,-1.94717 1.41111,1.41111 0 0 1 1.19682,-0.65629 z m 15.25488,4.41989 a 1.41111,1.41111 0 0 1 1.27073,0.86558 1.41111,1.41111 0 0 1 -0.75603,1.84536 c -1.98997,0.83383 -3.68854,0.6552 -4.72064,0.48059 a 1.41111,1.41111 0 0 1 -1.156,-1.62522 1.41111,1.41111 0 0 1 1.62677,-1.156 c 0.91409,0.15465 1.76929,0.28134 3.15847,-0.30076 a 1.41111,1.41111 0 0 1 0.5767,-0.10955 z m -14.26476,0.15916 a 1.41111,1.41111 0 0 1 0.5395,0.11059 c 1.38919,0.58209 2.24592,0.45539 3.16002,0.30075 a 1.41111,1.41111 0 0 1 1.62677,1.15601 1.41111,1.41111 0 0 1 -1.156,1.62522 c -1.0321,0.17461 -2.73067,0.35324 -4.72064,-0.48059 a 1.41111,1.41111 0 0 1 -0.75603,-1.84537 1.41111,1.41111 0 0 1 0.76585,-0.76171 v -5.1e-4 a 1.41111,1.41111 0 0 1 0.54053,-0.10439 z" />
  </g>
</svg>
