<?xml version="1.0" encoding="UTF-8" standalone="no"?>
<!-- Created with Inkscape (http://www.inkscape.org/) -->

<svg
   width="32mm"
   height="32mm"
   viewBox="0 0 31.999999 32"
   version="1.1"
   id="svg20953"
   inkscape:version="1.1.1 (1:1.1+202109281943+c3084ef5ed)"
   sodipodi:docname="logo.svg"
   inkscape:export-filename="/home/spak/Development/Mittelab/libspookyaction/misc/logo.png"
   inkscape:export-xdpi="406.39999"
   inkscape:export-ydpi="406.39999"
   xmlns:inkscape="http://www.inkscape.org/namespaces/inkscape"
   xmlns:sodipodi="http://sodipodi.sourceforge.net/DTD/sodipodi-0.dtd"
   xmlns="http://www.w3.org/2000/svg"
   xmlns:svg="http://www.w3.org/2000/svg">
  <sodipodi:namedview
     id="namedview20955"
     pagecolor="#505050"
     bordercolor="#ffffff"
     borderopacity="1"
     inkscape:pageshadow="0"
     inkscape:pageopacity="0"
     inkscape:pagecheckerboard="1"
     inkscape:document-units="mm"
     showgrid="false"
     fit-margin-top="0"
     fit-margin-left="0"
     fit-margin-right="0"
     fit-margin-bottom="0"
     inkscape:zoom="3.0680976"
     inkscape:cx="5.8668276"
     inkscape:cy="107.23257"
     inkscape:window-width="1920"
     inkscape:window-height="1055"
     inkscape:window-x="0"
     inkscape:window-y="0"
     inkscape:window-maximized="1"
     inkscape:current-layer="layer1" />
  <defs
     id="defs20950" />
  <g
     inkscape:label="Layer 1"
     inkscape:groupmode="layer"
     id="layer1"
     transform="translate(-106.54607,-105.69945)">
    <path
       id="rect3036-7-1-12"
       style="fill:#241628;fill-opacity:1;stroke:none;stroke-width:1.44576;stroke-linecap:square;stroke-linejoin:miter;stroke-miterlimit:4;stroke-dasharray:none;stroke-dashoffset:0;stroke-opacity:1;paint-order:normal"
       d="m 111.02997,110.18359 v 2.94272 1.25748 h -2.20773 c -0.70433,-6.1e-4 -1.27575,0.56995 -1.27617,1.27428 -3.4e-4,0.7049 0.57129,1.27631 1.27617,1.2757 h 2.20773 v 1.47743 h -2.20773 c -0.70433,-6e-4 -1.27575,0.56998 -1.27617,1.2743 -3.4e-4,0.70487 0.57129,1.27632 1.27617,1.27571 h 2.20773 v 1.47695 h -2.20773 c -0.70415,-6e-4 -1.27549,0.5697 -1.27617,1.27385 -6.1e-4,0.70506 0.57111,1.27676 1.27617,1.27616 h 2.20773 v 1.47743 h -2.20773 c -0.70506,-6e-4 -1.27677,0.57064 -1.27617,1.27569 4.2e-4,0.70433 0.57184,1.2749 1.27617,1.27429 h 2.20773 v 1.54467 0.98199 1.67307 h 23.0322 v -1.67307 -0.98199 -1.54467 h 2.20773 c 0.70433,6.1e-4 1.27574,-0.56996 1.27617,-1.27428 6e-4,-0.70505 -0.57111,-1.2763 -1.27617,-1.27569 h -2.20773 v -1.47743 h 2.20773 c 0.70506,6e-4 1.27677,-0.5711 1.27617,-1.27616 -6.9e-4,-0.70414 -0.57202,-1.27444 -1.27617,-1.27385 h -2.20773 v -1.47695 h 2.20773 c 0.70488,6.1e-4 1.27651,-0.57084 1.27617,-1.27571 -4.3e-4,-0.70432 -0.57184,-1.2749 -1.27617,-1.2743 h -2.20773 v -1.47743 h 2.20773 c 0.70488,6.1e-4 1.27651,-0.57081 1.27617,-1.2757 -4.3e-4,-0.70433 -0.57184,-1.27489 -1.27617,-1.27429 h -2.20773 v -1.25748 -1.26964 -1.67308 z m 19.82053,5.56555 v 4.8e-4 c 0.0477,2e-5 0.0954,0.003 0.14288,0.008 0.33617,0.0393 0.64292,0.21066 0.85265,0.47629 0.43747,0.5522 0.34421,1.35453 -0.20825,1.79167 -1.89296,1.49881 -4.12629,2.0278 -6.02877,2.31512 -0.69582,0.10497 -1.34512,-0.37359 -1.4508,-1.06931 -0.10608,-0.69664 0.37303,-1.34725 1.06977,-1.45268 1.72324,-0.26026 3.48033,-0.72693 4.82685,-1.79307 0.22625,-0.17962 0.50679,-0.27709 0.79567,-0.27643 z m -16.60887,0.14475 c 0.28904,-7.4e-4 0.56977,0.0967 0.79615,0.27644 1.34652,1.06616 3.10173,1.53281 4.82497,1.79308 0.69731,0.10473 1.17722,0.75556 1.07118,1.45267 -0.10566,0.69656 -0.75618,1.17541 -1.45267,1.06931 -1.90249,-0.28733 -4.13394,-0.8163 -6.0269,-2.31511 -0.55246,-0.43714 -0.64572,-1.23948 -0.20826,-1.79171 0.20973,-0.26563 0.51648,-0.43698 0.85265,-0.47628 0.0474,-0.005 0.0951,-0.008 0.14288,-0.008 z m 8.30373,0.61358 c 0.70415,-3.4e-4 1.27528,0.57015 1.27571,1.2743 v 5.83451 c -4.3e-4,0.70415 -0.57156,1.27464 -1.27571,1.27429 -0.70359,-4.2e-4 -1.27387,-0.5707 -1.2743,-1.27429 v -5.83451 c 4.3e-4,-0.70359 0.57071,-1.27388 1.2743,-1.2743 z m 7.32268,3.84252 c 0.0955,-2.5e-4 0.19074,0.0102 0.2839,0.0313 0.32973,0.074 0.61658,0.27589 0.79756,0.56126 0.3767,0.59508 0.19961,1.38284 -0.39551,1.75947 -1.71227,1.08381 -3.39927,1.42812 -5.26951,1.23041 -0.70051,-0.0744 -1.20798,-0.70271 -1.13328,-1.40319 0.0746,-0.69951 0.70169,-1.20643 1.40132,-1.13281 1.49492,0.15806 2.28468,0.007 3.63752,-0.84891 0.2029,-0.12836 0.43791,-0.19684 0.678,-0.19752 z m -14.64534,0.14427 c 0.24014,8.3e-4 0.47515,0.0695 0.678,0.198 1.35285,0.85568 2.1421,1.00649 3.63705,0.84842 0.70048,-0.0747 1.32882,0.43278 1.40318,1.13331 0.0746,0.70095 -0.43361,1.32952 -1.13468,1.40318 -1.87025,0.19773 -3.55769,-0.14661 -5.26997,-1.23041 -0.59496,-0.37677 -0.77183,-1.16452 -0.39504,-1.75947 0.23454,-0.37047 0.64298,-0.59444 1.08146,-0.59303 z m 13.78429,3.99381 c 0.50364,0.011 0.95359,0.31749 1.14822,0.78214 0.27129,0.6491 -0.0344,1.39528 -0.68313,1.66746 -1.79814,0.75345 -3.33297,0.59204 -4.26558,0.43427 -0.69373,-0.11747 -1.1612,-0.77468 -1.04456,-1.46854 0.11745,-0.69438 0.77559,-1.16206 1.46996,-1.04457 0.82597,0.13975 1.59872,0.25423 2.85398,-0.27177 0.16484,-0.0691 0.34239,-0.10288 0.52111,-0.099 z m -12.88962,0.14382 c 0.16748,9e-4 0.33314,0.035 0.48749,0.0999 1.25527,0.52597 2.0294,0.4115 2.85538,0.27176 0.69437,-0.11749 1.35252,0.35017 1.46996,1.04456 0.11664,0.69388 -0.35084,1.35108 -1.04457,1.46855 -0.93261,0.15778 -2.46743,0.31919 -4.26557,-0.43426 -0.64873,-0.27218 -0.95442,-1.01836 -0.68314,-1.66747 0.13027,-0.31213 0.37919,-0.55972 0.69202,-0.68828 v -4.8e-4 c 0.15504,-0.0632 0.32101,-0.0952 0.48843,-0.0943 z" />
  </g>
</svg>
