<?xml version="1.0" encoding="UTF-8" standalone="no"?>
<!-- Created with Inkscape (http://www.inkscape.org/) -->

<svg
   xmlns:dc="http://purl.org/dc/elements/1.1/"
   xmlns:cc="http://creativecommons.org/ns#"
   xmlns:rdf="http://www.w3.org/1999/02/22-rdf-syntax-ns#"
   xmlns:svg="http://www.w3.org/2000/svg"
   xmlns="http://www.w3.org/2000/svg"
   xmlns:sodipodi="http://sodipodi.sourceforge.net/DTD/sodipodi-0.dtd"
   xmlns:inkscape="http://www.inkscape.org/namespaces/inkscape"
   width="22mm"
   height="22mm"
   viewBox="0 0 22 22"
   version="1.1"
   id="svg921"
   inkscape:version="0.92.5 (2060ec1f9f, 2020-04-08)"
   sodipodi:docname="keycard-access.svg">
  <defs
     id="defs915" />
  <sodipodi:namedview
     id="base"
     pagecolor="#ffffff"
     bordercolor="#666666"
     borderopacity="1.0"
     inkscape:pageopacity="0.0"
     inkscape:pageshadow="2"
     inkscape:zoom="2.8"
     inkscape:cx="-32.1699"
     inkscape:cy="28.166327"
     inkscape:document-units="mm"
     inkscape:current-layer="layer1"
     showgrid="false"
     fit-margin-top="0"
     fit-margin-left="0"
     fit-margin-right="0"
     fit-margin-bottom="0"
     inkscape:window-width="3840"
     inkscape:window-height="2110"
     inkscape:window-x="0"
     inkscape:window-y="0"
     inkscape:window-maximized="1" />
  <metadata
     id="metadata918">
    <rdf:RDF>
      <cc:Work
         rdf:about="">
        <dc:format>image/svg+xml</dc:format>
        <dc:type
           rdf:resource="http://purl.org/dc/dcmitype/StillImage" />
        <dc:title></dc:title>
      </cc:Work>
    </rdf:RDF>
  </metadata>
  <g
     inkscape:label="Layer 1"
     inkscape:groupmode="layer"
     id="layer1"
     style="display:inline"
     transform="translate(-116.17211,-101.11737)">
    <path
       sodipodi:nodetypes="cccccccccccccccccccccccccssssscccccccccccccsccccccc"
       inkscape:connector-curvature="0"
       d="m 131.61524,104.41255 c -0.17537,-10e-4 -0.1644,0.42889 0.0201,0.7448 0.7521,1.30878 1.39722,2.85551 1.8534,4.53965 0.46382,1.71234 0.67873,3.36952 0.66797,4.84382 -0.008,0.59116 0.4699,0.9907 0.46819,0.39877 0.005,-1.62302 -0.23589,-3.44713 -0.74309,-5.31988 -0.49884,-1.84195 -1.20529,-3.54592 -2.02699,-4.98935 -0.0757,-0.1351 -0.1659,-0.21727 -0.23956,-0.21781 0,0 0,0 0,0 m -0.74998,1.77097 c -0.18764,0.009 -0.17918,0.46422 0.0159,0.78728 0.50568,0.85259 0.93955,1.87349 1.24342,2.9947 0.30805,1.13669 0.4428,2.23063 0.42241,3.19477 -0.0164,0.60823 0.5014,1.03913 0.50809,0.43074 0.0183,-1.12251 -0.14209,-2.39789 -0.49778,-3.7106 -0.35088,-1.29489 -0.85376,-2.48674 -1.43771,-3.48143 -0.0799,-0.13821 -0.1756,-0.21951 -0.25428,-0.21546 0,0 0,0 0,0 m -0.81613,1.92357 c -0.20134,0.0214 -0.19618,0.50349 0.0103,0.83394 0.22755,0.37108 0.42253,0.82071 0.55821,1.32105 0.13626,0.50199 0.19219,0.98048 0.1782,1.39983 -0.0272,0.63066 0.54206,1.09631 0.5535,0.46146 0.0165,-0.58724 -0.0647,-1.26103 -0.253,-1.95542 -0.1875,-0.69214 -0.46057,-1.3267 -0.77645,-1.84761 -0.0844,-0.1417 -0.1863,-0.22218 -0.27076,-0.21325 0,0 0,0 0,0 m 2.44991,-5.51321 c 0.13725,0.0101 0.31317,0.26597 0.39563,0.57374 0,0 3.45183,12.88241 3.45183,12.88241 0.0825,0.30776 0.0538,0.60149 -0.0653,0.65908 0,0 -12.29457,5.94545 -12.29457,5.94545 -0.2695,0.13032 -0.59078,-0.142 -0.7168,-0.61231 0,0 -1.56299,-5.83315 -1.56299,-5.83315 0,0 0.87766,-3.00688 0.87766,-3.00688 0,0 1.11641,1.1189 1.11641,1.1189 0,0 0.39584,-1.4525 0.39584,-1.4525 0,0 1.04432,1.08224 1.04432,1.08224 0,0 0.35327,-1.39054 0.35327,-1.39054 0,0 0.97972,1.04784 0.97972,1.04784 0,0 1.23806,-0.3183 1.23806,-0.3183 0,0 0.55702,-2.51907 0.55702,-2.51907 0,0 -0.5954,-2.22206 -0.5954,-2.22206 0,0 -0.89039,-1.06371 -0.89039,-1.06371 0,0 -0.83962,0.068 -0.83962,0.068 0,0 -6.41626,0.52254 -6.41626,0.52254 0,0 -1.53255,-5.71957 -1.53255,-5.71957 -0.12602,-0.47031 0.0258,-0.83025 0.33641,-0.80733 0,0 14.16771,1.0452 14.16771,1.0452 m -12.60503,6.84962 c 0,0 1.21755,1.24238 1.21755,1.24238 0,0 6.27789,-0.93889 6.27789,-0.93889 0,0 -0.91084,-1.06064 -0.91084,-1.06064 0,0 -6.5846,0.75715 -6.5846,0.75715"
       style="display:inline;fill:#393939;fill-opacity:1;stroke:none;stroke-width:0.73633546;stroke-linecap:round;stroke-miterlimit:4;stroke-dasharray:none;stroke-opacity:1"
       id="path5057" />
  </g>
  <g
     inkscape:groupmode="layer"
     id="layer2"
     inkscape:label="Backup"
     style="display:inline"
     sodipodi:insensitive="true"
     transform="translate(-116.17211,-101.11737)">
    <path
       id="path1470"
       style="fill:#393939;fill-opacity:1;stroke:none;stroke-width:0.73633546;stroke-linecap:round;stroke-miterlimit:4;stroke-dasharray:none;stroke-opacity:1"
       d="m 132.53272,127.89636 c -0.34305,5.6e-4 -0.54542,0.38497 -0.35167,0.66808 0.79246,1.19283 1.25779,2.61985 1.2678,4.16057 0.0102,1.56704 -0.45239,3.02279 -1.25402,4.23829 -0.3223,0.47694 0.4011,0.95417 0.71272,0.47019 0.89129,-1.35146 1.40644,-2.97529 1.39513,-4.71399 -0.0111,-1.70948 -0.52942,-3.30114 -1.41056,-4.62746 -0.0787,-0.12213 -0.21411,-0.19585 -0.3594,-0.19568 z m -2.3173,1.5412 c -0.34331,9e-5 -0.54612,0.38476 -0.35223,0.66807 0.50184,0.75655 0.79622,1.66024 0.80257,2.63757 0.006,0.99105 -0.28454,1.91048 -0.78934,2.68001 -0.32005,0.47746 0.40308,0.9521 0.71382,0.46853 0.59378,-0.90516 0.93687,-1.99212 0.92935,-3.15405 -0.007,-1.14588 -0.35447,-2.21451 -0.94478,-3.10445 -0.0787,-0.12213 -0.21411,-0.19585 -0.35939,-0.19568 z m -2.31842,1.5401 c -0.34332,-5.6e-4 -0.54678,0.38388 -0.35332,0.66752 0.2118,0.32049 0.33575,0.70168 0.33844,1.11621 0.003,0.41597 -0.11735,0.80001 -0.32632,1.12393 -0.32125,0.48119 0.41222,0.95384 0.71769,0.46247 0.29577,-0.45848 0.46626,-1.00733 0.46246,-1.59191 -0.004,-0.58258 -0.1803,-1.1278 -0.4801,-1.58144 -0.0783,-0.12238 -0.21354,-0.19653 -0.35885,-0.19678 z m 7.47065,-4.81158 c 0.29316,0 0.52917,0.23601 0.52917,0.52916 v 12.27109 c 0,0.29316 -0.23601,0.52917 -0.52917,0.52917 h -20.14244 c -0.29316,0 -0.52916,-0.23601 -0.52916,-0.52917 v -3.63595 l 1.65622,-1.65572 0.8537,0.8537 0.85421,-0.8537 0.8537,0.8537 0.85369,-0.8537 0.85369,0.8537 h 1.70791 l 1.70791,-1.70791 v -1.70739 l -0.85421,-0.85421 h -1.16117 l -7.32565,0.002 v -3.56515 c 0,-0.29316 0.236,-0.52917 0.52916,-0.52917 z m -20.6716,4.94712 0.85369,0.8537 h 7.63313 l -0.8537,-0.8537 z"
       inkscape:connector-curvature="0"
       sodipodi:nodetypes="cccccccccccccccccccccccccssssscccccccccccccsccccccc" />
  </g>
</svg>
