<?xml version="1.0" encoding="UTF-8" standalone="no"?>
<!-- Generator: Adobe Illustrator 16.0.4, SVG Export Plug-In . SVG Version: 6.00 Build 0)  -->

<svg
   version="1.1"
   id="Layer_1"
   x="0px"
   y="0px"
   width="426.74771mm"
   height="146.8298mm"
   viewBox="0 0 1612.9047 554.9473"
   enable-background="new 0 0 306 344.35"
   xml:space="preserve"
   sodipodi:docname="alternate_logos.svg"
   inkscape:version="1.1.1 (1:1.1+202109281943+c3084ef5ed)"
   xmlns:inkscape="http://www.inkscape.org/namespaces/inkscape"
   xmlns:sodipodi="http://sodipodi.sourceforge.net/DTD/sodipodi-0.dtd"
   xmlns="http://www.w3.org/2000/svg"
   xmlns:svg="http://www.w3.org/2000/svg"><defs
   id="defs23" /><sodipodi:namedview
   id="namedview21"
   pagecolor="#505050"
   bordercolor="#ffffff"
   borderopacity="1"
   inkscape:pageshadow="0"
   inkscape:pageopacity="0"
   inkscape:pagecheckerboard="1"
   showgrid="false"
   inkscape:snap-bbox="true"
   inkscape:bbox-paths="true"
   inkscape:bbox-nodes="true"
   inkscape:snap-bbox-edge-midpoints="true"
   inkscape:snap-bbox-midpoints="true"
   inkscape:snap-nodes="true"
   inkscape:snap-object-midpoints="true"
   inkscape:object-paths="true"
   inkscape:snap-intersection-paths="true"
   inkscape:snap-midpoints="true"
   inkscape:snap-smooth-nodes="true"
   inkscape:snap-center="true"
   units="mm"
   showguides="true"
   inkscape:guide-bbox="true"
   inkscape:zoom="0.32"
   inkscape:cx="540.625"
   inkscape:cy="625"
   inkscape:window-width="1920"
   inkscape:window-height="1055"
   inkscape:window-x="0"
   inkscape:window-y="0"
   inkscape:window-maximized="1"
   inkscape:current-layer="Layer_1"
   fit-margin-top="0"
   fit-margin-left="0"
   fit-margin-right="0"
   fit-margin-bottom="0"
   inkscape:document-units="mm"><sodipodi:guide
     position="82.761182,192.81556"
     orientation="0,-1"
     id="guide3844" /><sodipodi:guide
     position="0.0017624853,108.97307"
     orientation="1,0"
     id="guide3846" /><sodipodi:guide
     position="0.0017524853,110.05943"
     orientation="0,-1"
     id="guide3848" /><sodipodi:guide
     position="166.60048,110.05945"
     orientation="1,0"
     id="guide3850" /><sodipodi:guide
     position="83.301152,3.9380783e-05"
     orientation="1,0"
     id="guide3852" /><sodipodi:guide
     position="39.093882,110.05945"
     orientation="1,0"
     id="guide3854" /><sodipodi:guide
     position="127.50838,110.05945"
     orientation="1,0"
     id="guide3856" /><sodipodi:guide
     position="83.301142,153.72372"
     orientation="0,-1"
     id="guide3858" /><sodipodi:guide
     position="83.586852,65.300259"
     orientation="0,-1"
     id="guide3860" /></sodipodi:namedview>






<path
   id="path4253-8-6"
   style="fill:#7fc0c2;fill-opacity:1;fill-rule:evenodd;stroke:none;stroke-width:2.94075px;stroke-linecap:butt;stroke-linejoin:miter;stroke-opacity:1"
   d="m 1239.733,3.63761 c -22.5148,0.14586 -44.0121,9.39757 -59.5937,25.65039 -14.9975,15.64488 -23.3074,36.51962 -23.166,58.19141 0.1488,23.00172 9.6066,43.76527 24.7773,58.74219 15.1708,14.97689 58.5235,50.23047 58.5235,50.23047 0,0 44.3017,-35.81491 59.2793,-50.98633 14.9775,-15.17145 24.1672,-36.05766 24.0195,-59.06055 -0.2944,-46.00807 -37.8319,-83.0646 -83.8399,-82.76758 z m 0.5411,39.0918 c 15.7307,0 30.4018,8.46505 38.2871,22.0918 l -19.1348,11.07226 c -3.9465,-6.82074 -11.2852,-11.05859 -19.1523,-11.05859 -12.1894,0 -22.1075,9.91604 -22.1075,22.10547 0,12.189 9.9181,22.10547 22.1075,22.10547 7.8679,0 15.2073,-4.23655 19.1543,-11.0586 l 19.1328,11.07032 c -7.8853,13.62804 -22.5555,22.09375 -38.2871,22.09375 -24.3784,0 -44.2129,-19.8325 -44.2129,-44.21094 0,-24.37843 19.8345,-44.21094 44.2129,-44.21094 z m 34.3867,36.8418 h 4.9121 v 4.91211 h 4.9121 v 4.91211 h -4.9121 v 4.91406 h -4.9121 v -4.91406 h -4.9121 v -4.91211 h 4.9121 z m 18.4219,0 h 4.9121 v 4.91211 h 4.9121 v 4.91211 h -4.9121 v 4.91406 h -4.9121 v -4.91406 h -4.9141 v -4.91211 h 4.9141 z" /><path
   id="path2-6-6"
   style="fill:#7fc0c2;fill-opacity:1;stroke-width:0.522891"
   d="m 1030.944,51.8398 c 0,-2.2004 -0.7811,-4.6515 -2.0371,-6.8262 -1.2559,-2.1752 -2.9857,-4.0756 -4.8906,-5.1757 L 957.86981,1.6503 C 955.96461,0.5501 953.45361,0 950.94211,0 c -2.5116,0 -5.0246,0.5501 -6.9297,1.6503 l -66.1465,38.1876 c -3.8108,2.1998 -6.9258,7.6017 -6.9258,12.0019 v 76.377 c 0,2.2003 0.7791,4.6514 2.0352,6.8261 1.2554,2.1747 2.9858,4.0761 4.8906,5.1758 l 73.0742,59.8692 73.07619,-59.8692 c 1.9054,-1.1002 3.6352,-3.0006 4.8906,-5.1758 1.2555,-2.1747 2.0371,-4.6258 2.0371,-6.8261 z m -35.79099,35.09571 c 0,15.7307 -8.4651,30.4018 -22.0918,38.2871 l -11.0723,-19.1347 c 6.8208,-3.9466 11.0586,-11.2854 11.0586,-19.1524 0,-12.1895 -9.918,-22.1074 -22.1074,-22.1074 -12.189,0 -22.1055,9.9179 -22.1055,22.1074 0,7.8679 4.2385,15.2073 11.0606,19.1543 l -11.0723,19.1328 c -13.628,-7.8853 -22.0937,-22.5556 -22.0937,-38.2871 0,-24.3785 19.8325,-44.2129 44.2109,-44.2129 24.3784,0 44.2129,19.8344 44.2129,44.2129 z m -36.8438,34.3867 v 4.9121 h -4.9121 v 4.9122 h -4.9121 v -4.9122 h -4.9121 v -4.9121 h 4.9121 v -4.9121 h 4.9121 v 4.9121 z m 0,18.4219 v 4.9121 h -4.9121 v 4.9121 h -4.9121 v -4.9121 h -4.9121 v -4.9121 h 4.9121 v -4.9141 h 4.9121 v 4.9141 z"
   sodipodi:nodetypes="scccsccsscccccsssccsssccssscccccccccccccccccccccccccc" /><path
   id="path2"
   d="m 83.301165,354.85928 c -2.51157,0 -5.02316,0.5502 -6.92831,1.65038 l -66.1457,38.1884 c -3.8108297,2.19981 -6.9283097,7.60083 -6.9283097,12.00096 v 76.37782 c 0,2.20033 0.77941,4.65046 2.03539,6.82515 L 83.301165,444.88844 5.3342353,489.90301 c 1.25547,2.17471 2.98803,4.07515 4.8929197,5.17479 l 73.07448,59.86945 73.073545,-59.86945 c 1.90542,-1.10015 3.63746,-3.00057 4.89292,-5.17581 1.25545,-2.17469 2.03539,-4.62482 2.03539,-6.82515 v -76.37782 c 0,-2.20033 -0.77941,-4.65046 -2.03539,-6.82517 -1.25598,-2.17522 -2.98803,-4.07563 -4.89292,-5.17579 l -66.145705,-38.1884 c -1.90515,-1.10018 -4.41674,-1.65038 -6.92831,-1.65038 z"
   style="fill:#a59922;fill-opacity:0.347559;stroke-width:0.522891"
   sodipodi:nodetypes="sccsscccccccsscccs" /><path
   style="fill:#7fc0c2;fill-opacity:1;fill-rule:evenodd;stroke:none;stroke-width:2.94075px;stroke-linecap:butt;stroke-linejoin:miter;stroke-opacity:1"
   d="m 23.167835,387.78378 c -14.9974297,15.64488 -23.30745965,36.51867 -23.16605965,58.19046 0.1488,23.00172 9.60639995,43.76582 24.77711965,58.74274 15.17074,14.97689 58.52275,50.23028 58.52275,50.23028 0,0 44.301535,-35.81613 59.279105,-50.98755 14.97751,-15.17145 24.16748,-36.05651 24.01983,-59.0594 -0.29446,-46.00807 -37.83139,-83.06558 -83.839385,-82.76856 -22.5148,0.14586 -44.01178,9.39921 -59.59336,25.65203 z m 28.21568,27.05503 c 8.26989,-8.62603 19.67937,-13.53707 31.62897,-13.61427 24.417155,-0.1585 44.339735,19.50688 44.498355,43.92406 0.15851,24.41721 -19.50684,44.33985 -43.923975,44.49844 -24.41714,0.15704 -44.33837,-19.50984 -44.49536,-43.92702 -0.0752,-11.5007 4.33408,-22.57805 12.29201,-30.88121 z"
   id="path4253-8" /><g
   id="g3868"
   transform="matrix(0.43344832,0,0,0.43344832,-24.845035,341.27417)"><g
     id="g10"
     transform="translate(96.501922,68.133105)">
	<path
   fill="#ffffff"
   d="m 153,274.175 c -56.243,0 -102,-45.757 -102,-102 0,-56.243 45.757,-102 102,-102 36.292,0 70.139,19.53 88.331,50.968 l -44.143,25.544 C 188.083,130.951 171.15,121.175 153,121.175 c -28.122,0 -51,22.878 -51,51 0,28.121 22.878,51 51,51 18.152,0 35.085,-9.776 44.191,-25.515 l 44.143,25.543 c -18.192,31.441 -52.04,50.972 -88.334,50.972 z"
   id="path8" />
</g><g
     id="g14"
     transform="translate(96.501922,68.133105)">
	<polygon
   fill="#ffffff"
   points="255,166.508 243.666,166.508 243.666,155.175 232.334,155.175 232.334,166.508 221,166.508 221,177.841 232.334,177.841 232.334,189.175 243.666,189.175 243.666,177.841 255,177.841 "
   id="polygon12" />
</g><g
     id="g18"
     transform="translate(96.501922,68.133105)">
	<polygon
   fill="#ffffff"
   points="297.5,166.508 286.166,166.508 286.166,155.175 274.834,155.175 274.834,166.508 263.5,166.508 263.5,177.841 274.834,177.841 274.834,189.175 286.166,189.175 286.166,177.841 297.5,177.841 "
   id="polygon16" />
</g></g><path
   id="path2-6"
   style="fill:#7fc0c2;fill-opacity:1;stroke-width:0.522891"
   d="m 661.61101,1e-5 c -2.51157,0 -5.02454,0.55021 -6.92969,1.65039 l -66.14453,38.1875 c -3.81083,2.19981 -6.92773,7.60183 -6.92773,12.00196 v 76.37695 c 0,2.20033 0.77917,4.65148 2.03515,6.82617 1.25547,2.17471 2.98769,4.07614 4.89258,5.17578 l 73.07422,59.86914 73.07422,-59.86914 c 1.90542,-1.10015 3.63718,-3.00054 4.89258,-5.17578 1.2555,-2.17469 2.0352,-4.62584 2.0352,-6.82617 V 51.83986 c 0,-2.20033 -0.7792,-4.65147 -2.0352,-6.82618 -1.2559,-2.17522 -2.98769,-4.07562 -4.89258,-5.17578 L 668.53874,1.6504 C 666.63359,0.55022 664.12258,1e-5 661.61101,1e-5 Z m 0,46.36328 c 15.73071,0 30.40181,8.46505 38.28711,22.0918 l -19.13477,11.07227 c -3.94655,-6.82074 -11.28525,-11.0586 -19.15234,-11.0586 -12.18943,0 -22.10742,9.91799 -22.10742,22.10742 0,12.189 9.91799,22.10547 22.10742,22.10547 7.86796,0 15.20732,-4.23849 19.1543,-11.06054 l 19.13281,11.07226 c -7.88529,13.62804 -22.55553,22.09375 -38.28711,22.09375 -24.37843,0 -44.21289,-19.8325 -44.21289,-44.21094 0,-24.37843 19.83446,-44.21289 44.21289,-44.21289 z m 34.38672,36.84375 h 4.91211 v 4.91211 h 4.91211 v 4.91211 h -4.91211 v 4.91211 h -4.91211 v -4.91211 h -4.91211 v -4.91211 h 4.91211 z m 18.42187,0 h 4.91211 v 4.91211 h 4.91211 v 4.91211 h -4.91211 v 4.91211 h -4.91211 v -4.91211 h -4.91406 v -4.91211 h 4.91406 z" /><path
   id="path4253-8-6-0"
   style="fill:#7fc0c2;fill-opacity:1;fill-rule:evenodd;stroke:none;stroke-width:2.94075px;stroke-linecap:butt;stroke-linejoin:miter;stroke-opacity:1"
   d="m 1612.903,86.40624 c -0.2944,-46.0081 -37.8318,-83.0666 -83.8398,-82.7696 -22.5148,0.1459 -44.0102,9.3995 -59.5918,25.6524 -14.9975,15.6448 -23.3074,36.5176 -23.166,58.1894 0.1488,23.0017 9.6047,43.7672 24.7754,58.7442 15.1708,14.9768 58.5234,50.2304 58.5234,50.2304 0,0 44.3017,-35.8168 59.2793,-50.9882 14.9775,-15.1715 24.1672,-36.0557 24.0195,-59.0586 z m -39.0878,0.5293 c 0,15.7307 -8.4651,30.4018 -22.0918,38.2871 l -11.0723,-19.1348 c 6.8207,-3.9465 11.0586,-11.2852 11.0586,-19.1523 0,-12.1894 -9.916,-22.1075 -22.1055,-22.1075 -12.189,0 -22.1054,9.9181 -22.1054,22.1075 0,7.8679 4.2365,15.2073 11.0585,19.1543 l -11.0703,19.1328 c -13.628,-7.8853 -22.0937,-22.5555 -22.0937,-38.2871 0,-24.3784 19.8325,-44.2129 44.2109,-44.2129 24.3785,0 44.211,19.8345 44.211,44.2129 z m -36.8418,34.3867 v 4.9121 h -4.9121 v 4.9121 h -4.9122 v -4.9121 h -4.914 v -4.9121 h 4.914 v -4.9121 h 4.9122 v 4.9121 z m 0,18.4219 v 4.9121 h -4.9121 v 4.9121 h -4.9122 v -4.9121 h -4.914 v -4.9121 h 4.914 v -4.9141 h 4.9122 v 4.9141 z" /></svg>
